<svg xmlns="http://www.w3.org/2000/svg" viewBox="0 0 1080 1080" font-family="Archivo, sans-serif">
<rect width="1080" height="1080" fill="#FFFDF7"></rect>
<rect x="0" y="0" width="367" height="14" fill="#C2571B"></rect><rect x="367" y="0" width="356" height="14" fill="#D9A441"></rect><rect x="724" y="0" width="356" height="14" fill="#1F4D36"></rect>
<text x="540" y="92" font-family="Archivo, sans-serif" font-size="38" font-weight="800" fill="#1B140D" text-anchor="middle" letter-spacing="9">CHEZ AÏCHA</text>
<rect x="80" y="120" width="920" height="520" fill="#F3EBDB" stroke="#1B140D" stroke-width="4"></rect><g stroke="#1B140D" stroke-width="8" opacity="0.5" fill="none">
<path d="M104 204v-60h60"></path><path d="M916 144h60v60"></path>
<path d="M104 556v60h60"></path><path d="M976 556v60h-60"></path></g><g transform="translate(492,290) scale(4)" fill="none" stroke="#8D7C64" stroke-width="1.6" stroke-linecap="round" stroke-linejoin="round"><path d="M12 3l7.5 4.2v9.6L12 21l-7.5-4.2V7.2L12 3z"></path><path d="M4.5 7.2L12 11.5l7.5-4.3"></path><path d="M12 11.5V21"></path></g><text x="540" y="470" text-anchor="middle" font-family="Archivo, sans-serif" font-size="30" font-weight="700" letter-spacing="6" fill="#8D7C64">PHOTO DU PRODUIT</text>
<text x="80" y="706" font-family="Archivo, sans-serif" font-size="54" font-weight="900" fill="#1B140D">ROBE BRODÉE BOGOLAN</text>
<rect x="0" y="742" width="1080" height="170" fill="#C2571B"></rect>
<text x="80" y="804" font-family="Archivo, sans-serif" font-size="26" font-weight="800" fill="#F4CFB4" letter-spacing="7">PRIX</text>
<text x="80" y="890" font-family="Archivo, sans-serif" font-size="104" font-weight="900" fill="#FFF8F1">11 500 F</text>
<text x="80" y="970" font-family="Archivo, sans-serif" font-size="28" font-weight="700" fill="#6E6154" letter-spacing="2.5">LIVRÉ PAR SÉRA · PAIEMENT PROTÉGÉ</text>
<rect x="80" y="996" width="520" height="78" fill="#1B140D"></rect>
<text x="106" y="1048" font-family="Archivo, sans-serif" font-size="34" font-weight="800" fill="#FFF8F1" letter-spacing="1.5">CODE : AÏCHA-4821</text>
<text x="1000" y="1048" font-family="Archivo, sans-serif" font-size="30" font-weight="700" fill="#6E6154" text-anchor="end">lien dans ma bio</text>
<rect x="0" y="1066" width="367" height="14" fill="#C2571B"></rect><rect x="367" y="1066" width="356" height="14" fill="#D9A441"></rect><rect x="724" y="1066" width="356" height="14" fill="#1F4D36"></rect>
</svg>