<svg xmlns="http://www.w3.org/2000/svg" viewBox="0 0 1200 630" font-family="Archivo, sans-serif">
<rect width="1200" height="630" fill="#FFFDF7"></rect>
<rect x="0" y="0" width="630" height="630" fill="#F3EBDB"></rect>
<path d="M630 0v630" stroke="rgba(27,20,13,0.22)" stroke-width="2"></path>
<g stroke="#1B140D" stroke-width="6" opacity="0.45" fill="none">
<path d="M18 62v-44h44"></path><path d="M568 18h44v44"></path>
<path d="M18 568v44h44"></path><path d="M612 568v44h-44"></path></g>
<g transform="translate(267,225) scale(6)" fill="none" stroke="#8D7C64" stroke-width="1.6" stroke-linecap="round" stroke-linejoin="round"><path d="M12 3l7.5 4.2v9.6L12 21l-7.5-4.2V7.2L12 3z"></path><path d="M4.5 7.2L12 11.5l7.5-4.3"></path><path d="M12 11.5V21"></path></g>
<text x="315" y="460" font-family="Archivo, sans-serif" font-size="26" font-weight="700" fill="#8D7C64" text-anchor="middle" letter-spacing="5">PHOTO DU PRODUIT</text>
<text x="680" y="200" font-family="Archivo, sans-serif" font-size="54" font-weight="800" fill="#1B140D">Robe brodée bogolan</text>
<text x="680" y="272" font-family="Archivo, sans-serif" font-size="54" font-weight="900" fill="#1B140D">— 11 500 F</text>
<text x="680" y="344" font-family="Archivo, sans-serif" font-size="32" font-weight="500" fill="#4A3F33">Chez Aïcha · Livré par Séra · Paiement protégé</text>
<text x="680" y="556" font-family="Archivo, sans-serif" font-size="28" font-weight="500" fill="#8D7C64" font-family="ui-monospace, monospace">shopplus.bf/r/aicha/robe-bogolan</text>
<rect x="0" y="616" width="408" height="14" fill="#C2571B"></rect><rect x="408" y="616" width="396" height="14" fill="#D9A441"></rect><rect x="804" y="616" width="396" height="14" fill="#1F4D36"></rect>
</svg>